<?xml version="1.0" encoding="UTF-8" standalone="no"?>
<!-- Created with Inkscape (http://www.inkscape.org/) -->

<svg
   width="101.03072mm"
   height="46.491634mm"
   viewBox="0 0 101.03073 46.491635"
   version="1.1"
   id="svg1"
   sodipodi:docname="TITLE.svg"
   inkscape:version="1.4.2 (f4327f4, 2025-05-13)"
   inkscape:export-filename="TITLE.svg"
   inkscape:export-xdpi="400"
   inkscape:export-ydpi="400"
   xmlns:inkscape="http://www.inkscape.org/namespaces/inkscape"
   xmlns:sodipodi="http://sodipodi.sourceforge.net/DTD/sodipodi-0.dtd"
   xmlns="http://www.w3.org/2000/svg"
   xmlns:svg="http://www.w3.org/2000/svg">
  <sodipodi:namedview
     id="namedview1"
     pagecolor="#ffffff"
     bordercolor="#000000"
     borderopacity="0.25"
     inkscape:showpageshadow="2"
     inkscape:pageopacity="0.0"
     inkscape:pagecheckerboard="0"
     inkscape:deskcolor="#d1d1d1"
     inkscape:document-units="mm"
     inkscape:zoom="1.1680753"
     inkscape:cx="117.28696"
     inkscape:cy="-24.399112"
     inkscape:window-width="1920"
     inkscape:window-height="1017"
     inkscape:window-x="-8"
     inkscape:window-y="-8"
     inkscape:window-maximized="1"
     inkscape:current-layer="g5" />
  <defs
     id="defs1" />
  <g
     id="layer1">
    <g
       id="g5"
       transform="translate(1.7012101,1.5875)">
      <path
         style="font-weight:bold;font-size:21.1667px;font-family:MetroSung;-inkscape-font-specification:'MetroSung Bold';letter-spacing:3.96875px;fill:#222222;stroke-width:0.264583"
         d="m 21.847775,23.580653 c 1.756836,0.127 2.963338,0.105833 5.037674,0 1.397003,-0.0635 2.201337,-0.444501 2.561171,-1.545169 0.296334,-0.931335 -0.02117,-1.375836 -0.698501,-1.54517 -0.486834,-0.127 -0.719668,-0.211667 -0.698501,-0.677334 l 0.0635,-2.624671 c 0,-0.105833 -0.127,-0.127 -0.148167,0 l -0.677334,3.323172 c -0.127,0.592668 -0.486834,0.910168 -1.185336,0.952502 -1.545169,0.08467 -1.947336,0.08467 -3.344338,0 -0.656168,-0.04233 -0.952502,-0.211667 -0.952502,-0.762002 v -6.85801 c 0,-0.296334 0.105834,-0.486835 0.465668,-0.677335 0.1905,-0.08467 0.148167,-0.296334 -0.04233,-0.3175 l -2.540004,-0.232834 c -0.105833,0 -0.169333,0.04233 -0.169333,0.148167 v 8.551347 c 0,1.418169 0.762001,2.18017 2.328337,2.264837 z m -6.625177,-2.751671 c 1.333502,0 2.540004,-1.524003 2.540004,-4.000507 0,-1.270002 -0.211667,-2.18017 -0.444501,-3.005671 -0.04233,-0.169334 -0.148167,-0.169334 -0.1905,0 -0.571501,2.349504 -1.037169,3.344339 -2.328338,4.699007 -0.423334,0.423334 -0.677334,0.783168 -0.677334,1.333502 0,0.613835 0.444501,0.973669 1.100669,0.973669 z m 10.075349,-4.508507 c 0.592667,0.105833 1.270002,-0.105834 1.418169,-0.952502 0.254,-1.545169 -0.867835,-3.810006 -4.466174,-4.720174 -0.127,-0.04233 -0.1905,0.04233 -0.105833,0.127 1.354668,1.397002 1.545169,2.455337 1.989669,4.021673 0.232834,0.804335 0.486834,1.397002 1.164169,1.524003 z M 14.079596,7.9384612 14.62993,8.5099621 h 4.064006 v 2.3283369 c 0,0.211667 0.211667,0.296334 0.592668,0.296334 0.423334,0 0.994835,-0.04233 1.418169,-0.1905 0.232834,-0.08467 0.381001,-0.211667 0.381001,-0.402168 V 8.5099621 h 2.751671 c 0.3175,0 0.4445,-0.211667 0.169333,-0.4868341 C 23.668111,7.6844608 23.414111,7.4727938 23.03311,7.1976267 22.630943,6.9012929 22.482776,6.9012929 22.122942,7.2399601 l -0.571501,0.5291675 c -0.04233,0.042333 -0.105834,0.0635 -0.148167,0.0635 h -0.3175 V 5.9487913 c 0,-0.2328337 0.1905,-0.3386672 0.381,-0.4021673 0.211667,-0.0635 0.1905,-0.2751671 0,-0.2963338 L 18.842103,5.0174565 c -0.105833,0 -0.148167,0.042333 -0.148167,0.1481669 v 2.6670043 h -4.55084 c -0.08467,0 -0.105834,0.0635 -0.0635,0.1058335 z M 31.62679,20.215147 c 0.656168,0 1.270002,-0.381 1.270002,-1.524002 0,-2.05317 -1.587502,-4.064007 -4.402673,-5.122342 -0.127001,-0.04233 -0.211667,0.04233 -0.105834,0.190501 1.227669,1.714503 1.587503,2.857504 1.92617,4.720174 0.1905,1.121835 0.508001,1.735669 1.312335,1.735669 z m -4.804841,-9.165181 c 0.423334,0 0.994835,-0.04233 1.418169,-0.1905 0.232834,-0.08467 0.381001,-0.211667 0.381001,-0.402167 V 8.5099621 h 4.36034 c 0.317501,0 0.444501,-0.211667 0.169334,-0.4868341 C 32.812126,7.6844608 32.431125,7.3457936 32.050124,7.0494598 31.62679,6.7319593 31.393957,6.7107926 31.034123,7.0706265 l -0.677335,0.6985011 c -0.04233,0.042333 -0.105833,0.0635 -0.148167,0.0635 H 28.621119 V 5.9487913 c 0,-0.2328337 0.1905,-0.3386672 0.381,-0.4021673 0.211667,-0.0635 0.190501,-0.2751671 0,-0.2963338 l -2.62467,-0.2328337 c -0.105834,0 -0.148167,0.042333 -0.148167,0.1481669 v 2.6670043 h -1.968503 c -0.08467,0 -0.105834,0.0635 -0.0635,0.1058335 l 0.550335,0.5715009 h 1.481669 v 2.2436699 c 0,0.211667 0.211667,0.296334 0.592667,0.296334 z m 13.176265,9.673182 1.439336,2.667004 c 0.105833,0.211667 0.381,0.148167 0.381,-0.105833 0,-0.508001 0.169334,-0.783168 0.740835,-1.121835 1.185335,-0.719668 2.30717,-1.566336 3.534839,-2.815171 v 4.445007 c 0,0.211667 0.169333,0.275167 0.508,0.275167 0.338668,0 0.719668,-0.04233 1.206502,-0.169334 0.423334,-0.105833 0.508001,-0.1905 0.508001,-0.508001 v -0.994834 h 5.545676 v 1.397002 c 0,0.211667 0.169333,0.275167 0.508001,0.275167 0.338667,0 0.740834,-0.04233 1.206501,-0.169334 0.423334,-0.105833 0.508001,-0.1905 0.508001,-0.508001 v -4.868341 c 0,-0.232833 0.423334,-0.508 0.550334,-0.656167 0.148167,-0.190501 0.148167,-0.338668 -0.0635,-0.529168 -0.423334,-0.381 -0.846668,-0.740834 -1.270002,-1.037168 -0.359834,-0.232834 -0.635001,-0.254001 -0.931334,0.04233 l -0.656168,0.656168 c -0.08467,0.08467 -0.169334,0.105833 -0.296334,0.105833 h -4.910674 l -2.264837,-0.931334 c -0.105834,-0.04233 -0.148167,0.02117 -0.148167,0.127 v 2.264837 l -2.18017,0.804334 v -6.138343 c 0,-0.232833 0.0635,-0.275167 0.508,-0.698501 0.190501,-0.148167 0.190501,-0.359834 -0.04233,-0.550334 -0.402167,-0.381001 -0.804335,-0.762001 -1.227669,-1.037168 -0.338667,-0.254001 -0.592667,-0.254001 -0.889001,0.04233 l -0.656168,0.656168 c -0.08467,0.08467 -0.169333,0.105833 -0.296334,0.105833 h -2.201336 c -0.08467,0 -0.105834,0.0635 -0.0635,0.105834 l 0.550335,0.550334 h 2.159003 v 7.662345 l -1.714503,0.508001 c -0.08467,0.02117 -0.08467,0.08467 -0.04233,0.148167 z M 42.961552,9.4836303 c 0.656168,0 1.100668,-0.4868341 1.100668,-1.1641685 0,-1.5875025 -1.375835,-2.6670043 -4.127506,-2.8363379 -0.08467,0 -0.148167,0.0635 -0.0635,0.1481669 1.079501,1.1006685 1.502835,1.841503 2.010836,2.9845048 0.232834,0.5080008 0.465668,0.8678347 1.079502,0.8678347 z m 1.481669,5.1646747 0.550334,0.571501 h 13.292688 c 0.317501,0 0.444501,-0.211667 0.169334,-0.486834 -0.338668,-0.338667 -0.592668,-0.550334 -0.973669,-0.825501 -0.402167,-0.296334 -0.550334,-0.296334 -0.910168,0.04233 l -0.571501,0.529168 c -0.04233,0.04233 -0.08467,0.0635 -0.148166,0.0635 h -0.296334 l 0.148167,-2.984505 c 0.02117,-0.232834 0.0635,-0.275167 0.508,-0.698501 0.169334,-0.148167 0.169334,-0.338667 -0.04233,-0.550334 C 55.767406,9.9069643 55.386405,9.5682971 54.941904,9.2507966 54.603237,9.0179629 54.32807,8.9967962 54.031736,9.29313 l -0.677334,0.6773344 c -0.0635,0.063501 -0.148167,0.1058336 -0.275167,0.1058336 h -2.772838 l 0.296334,-1.8626697 c 0.04233,-0.2963338 0.148167,-0.4868341 0.529167,-0.6773344 0.211667,-0.084667 0.169334,-0.2963338 0,-0.3175005 L 49.459729,6.9224596 h 8.001013 c 0.3175,0 0.402167,-0.2751671 0.169333,-0.4868341 C 57.143241,5.969958 56.677574,5.5889574 56.148406,5.2079568 55.703906,4.8692896 55.344072,4.8904563 55.005405,5.2291235 l -0.889002,0.9101681 c -0.0635,0.084667 -0.148167,0.1058335 -0.254,0.1058335 h -8.953515 c -0.08467,0 -0.105833,0.0635 -0.0635,0.1058336 l 0.550335,0.5715009 h 3.048004 L 48.04156,10.076298 h -2.518837 c -0.08467,0 -0.105834,0.0635 -0.0635,0.105833 l 0.550334,0.571501 h 1.947336 c -0.169333,1.248836 -0.338667,2.518838 -0.550334,3.78884 h -2.899838 c -0.08467,0 -0.105833,0.0635 -0.0635,0.105833 z m 3.873506,7.069678 v -3.937006 h 5.545676 v 3.937006 z m 1.375836,-7.175511 0.529167,-3.78884 h 3.344339 l -0.254001,3.78884 z m 14.6791,-5.5880092 0.550334,0.5715009 H 83.18886 c 0.3175,0 0.402167,-0.2751671 0.169333,-0.4868341 C 82.871359,8.5734622 82.405692,8.1924616 81.876524,7.811461 81.432024,7.4727938 81.07219,7.4939605 80.733522,7.8326277 l -0.889001,0.9101681 c -0.08467,0.084667 -0.148167,0.1058335 -0.254,0.1058335 H 64.435163 c -0.08467,0 -0.105833,0.0635 -0.0635,0.1058335 z m 3.767673,14.9436902 c 0.3175,0 0.931335,-0.04233 1.397002,-0.169333 0.402167,-0.105834 0.486834,-0.190501 0.486834,-0.508001 v -0.762001 h 8.043346 v 1.164168 c 0,0.211667 0.169334,0.275167 0.508001,0.275167 0.317501,0 0.931335,-0.04233 1.397002,-0.169333 0.402168,-0.105834 0.486834,-0.190501 0.486834,-0.508001 v -4.550841 c 0,-0.232833 0.486834,-0.508001 0.613835,-0.656167 0.148167,-0.190501 0.148167,-0.338668 -0.0635,-0.529168 -0.402168,-0.381001 -0.889002,-0.825501 -1.312336,-1.121835 -0.338667,-0.232834 -0.592667,-0.211667 -0.889001,0.04233 l -0.846668,0.740835 c -0.0635,0.0635 -0.148167,0.105833 -0.275167,0.105833 h -7.471846 l -2.413003,-0.952501 c -0.105834,-0.04233 -0.169334,0.02117 -0.169334,0.127 v 7.196678 c 0,0.211667 0.169334,0.275167 0.508001,0.275167 z m -0.550334,-9.376848 0.550334,0.571501 h 12.128519 c 0.317501,0 0.402167,-0.275167 0.169334,-0.486834 -0.444501,-0.402168 -0.889002,-0.762001 -1.375836,-1.121835 -0.444501,-0.338668 -0.804334,-0.317501 -1.143002,0.02117 l -0.783168,0.804335 c -0.08467,0.08467 -0.148166,0.105833 -0.254,0.105833 h -9.228681 c -0.08467,0 -0.105834,0.0635 -0.0635,0.105834 z m 0,-2.836338 0.550334,0.571501 h 12.128519 c 0.317501,0 0.402167,-0.275167 0.169334,-0.486834 -0.444501,-0.402167 -0.889002,-0.762001 -1.375836,-1.121835 -0.444501,-0.338667 -0.804334,-0.317501 -1.143002,0.02117 L 77.135183,11.4733 c -0.08467,0.08467 -0.148166,0.105834 -0.254,0.105834 h -9.228681 c -0.08467,0 -0.105834,0.0635 -0.0635,0.105833 z m 0.296333,-5.4610086 0.550335,0.571501 h 11.112517 c 0.317501,0 0.444501,-0.211667 0.169334,-0.4868342 C 79.33652,5.9276246 78.934353,5.5677907 78.511019,5.2291235 78.087685,4.8904563 77.812518,4.911623 77.473851,5.2502902 l -0.762002,0.8043346 c -0.04233,0.042333 -0.105833,0.0635 -0.148166,0.0635 h -8.614848 c -0.08467,0 -0.105833,0.0635 -0.0635,0.1058335 z m 2.137837,15.5575246 v -3.852339 h 8.043346 v 3.852339 z"
         id="text1"
         aria-label="芯语言" />
      <g
         id="g4"
         transform="matrix(0.83950234,0,0,0.83950234,7.8345578,5.1717814)">
        <path
           style="font-size:11.0271px;font-family:MetroSung;-inkscape-font-specification:MetroSung;letter-spacing:0.516893px;fill:#222222;stroke-width:0.258446"
           d="m 58.702136,37.026407 c 1.738498,0 2.946415,-0.775535 3.160905,-2.423548 h -1.422407 c -0.124179,0.947877 -0.756359,1.238702 -1.738498,1.238702 -1.546586,0 -2.156189,-1.389501 -2.156189,-2.865172 0,-1.497214 0.575737,-2.897487 2.235212,-2.897487 0.948271,0 1.535296,0.409311 1.648186,1.411044 h 1.433696 c -0.146756,-1.755726 -1.38854,-2.563576 -3.048015,-2.563576 -2.619036,0 -3.736642,1.70187 -3.736642,4.050019 0,2.391234 1.140184,4.050018 3.623752,4.050018 z"
           id="path4" />
        <path
           style="font-size:11.0271px;font-family:MetroSung;-inkscape-font-specification:MetroSung;letter-spacing:0.516893px;fill:#222222;stroke-width:0.258446"
           d="m 46.10339,37.729195 h 1.411469 c 0,-3.252995 -0.06616,-5.270954 -0.176433,-6.561125 h 0.01103 l 3.341211,6.561125 h 1.609956 v -7.939512 h -1.389414 c 0.02205,2.271582 0.110271,5.348143 0.242596,6.307501 h -0.01103 c -0.143352,-0.485192 -0.41903,-1.080656 -0.639572,-1.52174 L 47.944916,29.789683 H 46.10339 Z"
           transform="scale(1.0237458,0.97680501)"
           id="path3" />
        <path
           style="font-size:11.0271px;font-family:MetroSung;-inkscape-font-specification:MetroSung;letter-spacing:0.516893px;fill:#222222;stroke-width:0.258446"
           d="m 42.609175,37.729195 h 1.433523 v -7.939512 h -1.433523 z"
           transform="scale(1.0237458,0.97680501)"
           id="path2" />
        <path
           style="font-size:11.0271px;font-family:MetroSung;-inkscape-font-specification:MetroSung;letter-spacing:0.516893px;fill:#222222;stroke-width:0.258446"
           d="m 34.935685,37.729195 h 6.042851 v -1.279144 h -4.399813 l 4.212352,-5.293008 v -1.36736 h -5.689984 v 1.224008 h 4.002838 l -4.168244,5.43636 z"
           transform="scale(1.0237458,0.97680501)"
           id="text2" />
      </g>
    </g>
  </g>
</svg>
